<svg width="232" height="30" viewBox="0 0 232 30" fill="none" xmlns="http://www.w3.org/2000/svg">
<g clip-path="url(#clip0_296_39)">
<path d="M29.8193 19.3728C29.5727 19.661 29.3456 19.927 29.1406 20.1958L22.2598 28.9885L22.1767 29.0717C21.354 30.1191 21.5811 29.9972 20.2875 29.9972H14.1269C13.7972 29.9972 13.5119 29.9778 13.0576 29.9778C13.1186 29.7728 13.2017 29.5677 13.3042 29.382C13.7778 28.7668 14.2681 28.1489 14.7418 27.5531C18.1712 23.1775 21.5395 18.8019 24.9689 14.4264C28.5007 9.92609 31.9938 5.40641 35.5256 0.928304C35.7527 0.640109 35.9162 0.249383 36.3483 0.105286C36.9439 0.61794 40.0463 4.60556 40.5366 5.38424C40.4535 5.7334 40.2486 6.0216 39.9826 6.24606C38.2375 8.46571 36.5339 10.6632 34.786 12.8829C34.5616 13.1711 34.3954 13.4786 34.171 13.7447C34.3982 14.0329 34.5616 14.3405 34.7666 14.5871C38.4425 19.2924 42.099 23.9978 45.7942 28.7003C46.0823 29.0079 46.3067 29.3793 46.4729 29.77C46.2457 30.0166 45.9604 29.975 45.7139 29.975H38.7721C38.3815 30.0166 37.991 29.8309 37.725 29.5234C37.3344 28.9691 36.8829 28.4565 36.4923 27.8995C34.4785 25.2891 32.4453 22.7009 30.3927 20.1127C30.2071 19.866 30.0243 19.6194 29.8165 19.3728H29.8193Z" fill="#FF5758"/>
<path d="M23.3516 0C24.8087 1.76797 26.1854 3.57473 27.5621 5.36209C27.3156 5.69185 27.1715 5.97728 26.9472 6.2239C22.5123 11.9352 18.0137 17.6464 13.5788 23.3161L8.97777 29.1714C8.85589 29.3155 8.73124 29.479 8.62875 29.6453C8.46531 29.8725 8.19662 29.9945 7.93069 29.9751H0.758997C0.493071 30.0166 0.204985 29.9557 0 29.77C0.102492 29.4208 0.288087 29.0911 0.554013 28.8444C2.07478 26.913 3.55122 25.0037 5.07198 23.0916L22.4874 0.823019C22.6924 0.473859 22.9998 0.185664 23.3489 0H23.3516Z" fill="#FF5758"/>
<path d="M38.5897 13.7225C39.9442 11.9546 41.2794 10.2919 42.6146 8.62646C42.6977 8.54333 42.8002 8.48236 42.9027 8.39923C43.2933 8.54333 43.4567 8.87309 43.6617 9.13912C45.6949 11.7273 47.7087 14.274 49.7004 16.865C52.7807 20.8304 55.8832 24.7737 58.9829 28.7613C59.271 29.0273 59.476 29.3571 59.5784 29.7063C59.4344 29.9945 59.1879 29.9335 58.9635 29.9335H55.307C54.2378 29.9335 53.1491 29.9141 52.0827 29.9335C51.548 29.9529 51.055 29.7063 50.7669 29.2546C49.5951 27.7138 48.3431 26.1509 47.1104 24.6102C44.5232 21.2821 41.9775 18.0371 39.3875 14.7478C39.1215 14.4818 38.8944 14.152 38.5869 13.7198L38.5897 13.7225Z" fill="#FF5758"/>
<path d="M65.9307 1.2442H70.5428L74.3018 7.34618L78.0608 1.2442H82.6729V17.0035H78.3295V7.95305L74.3018 14.1215H74.2132L70.2076 7.99739V17.0035H65.9334V1.2442H65.9307Z" fill="white"/>
<path d="M85.2158 0.568054H89.6701V3.7188H85.2158V0.568054ZM85.3045 4.82447H89.5814V17.0035H85.3045V4.82447Z" fill="white"/>
<path d="M91.9668 4.82449H96.241V6.53426C97.0277 5.52003 98.1551 4.55292 99.8864 4.55292C102.474 4.55292 104.028 6.26269 104.028 9.0338V17.0035H99.7507V10.4083C99.7507 9.08091 99.0526 8.36042 98.0415 8.36042C97.0305 8.36042 96.241 9.08091 96.241 10.4083V17.0035H91.9668V4.82449Z" fill="white"/>
<path d="M106.978 13.2209V8.26896H105.537V4.82448H106.978V1.74023H111.252V4.82448H114.088V8.26896H111.252V12.3896C111.252 13.2459 111.634 13.6061 112.421 13.6061C112.983 13.6061 113.523 13.4482 114.041 13.2015V16.5546C113.277 16.9813 112.263 17.2529 111.072 17.2529C108.507 17.2529 106.975 16.1278 106.975 13.2237L106.978 13.2209Z" fill="white"/>
<path d="M115.102 10.9708V10.9264C115.102 7.36834 117.644 4.55566 121.246 4.55566C125.453 4.55566 127.39 7.63991 127.39 11.2202C127.39 11.489 127.39 11.8049 127.367 12.0986H119.221C119.559 13.426 120.525 14.1021 121.852 14.1021C122.866 14.1021 123.675 13.7197 124.553 12.8634L126.916 14.8226C125.747 16.3079 124.057 17.3 121.628 17.3C117.802 17.3 115.102 14.7561 115.102 10.9735V10.9708ZM123.381 9.91221C123.223 8.56268 122.437 7.70641 121.265 7.70641C120.093 7.70641 119.376 8.58485 119.149 9.91221H123.379H123.381Z" fill="white"/>
<path d="M131.664 10.8572L127.637 4.82446H132.249L134.049 7.81726L135.85 4.82446H140.374L136.368 10.835L140.465 17.0035H135.875L133.986 13.8749L132.072 17.0035H127.57L131.667 10.8572H131.664Z" fill="white"/>
<path d="M140.847 14.6619L143.276 11.7578C144.83 12.9965 146.561 13.6477 148.384 13.6477C149.553 13.6477 150.184 13.2431 150.184 12.5669V12.5226C150.184 11.8686 149.666 11.5084 147.528 11.0151C144.176 10.2503 141.586 9.30535 141.586 6.06315V6.01882C141.586 3.09253 143.905 0.975403 147.686 0.975403C150.364 0.975403 152.456 1.69589 154.168 3.07036L151.985 6.1546C150.545 5.14038 148.968 4.60001 147.575 4.60001C146.517 4.60001 145.999 5.04893 145.999 5.61424V5.65857C145.999 6.37906 146.539 6.69497 148.722 7.18822C152.345 7.97522 154.594 9.1474 154.594 12.0959V12.1402C154.594 15.3602 152.051 17.2723 148.226 17.2723C145.437 17.2723 142.78 16.3938 140.844 14.6619H140.847Z" fill="#FF5758"/>
<path d="M156.982 13.2209V8.26896H155.542V4.82448H156.982V1.74023H161.257V4.82448H164.093V8.26896H161.257V12.3896C161.257 13.2459 161.639 13.6061 162.426 13.6061C162.988 13.6061 163.528 13.4482 164.046 13.2015V16.5546C163.282 16.9813 162.268 17.2529 161.077 17.2529C158.511 17.2529 156.98 16.1278 156.98 13.2237L156.982 13.2209Z" fill="#FF5758"/>
<path d="M165.332 13.5119V13.4676C165.332 10.9458 167.243 9.64065 170.102 9.64065C171.227 9.64065 172.329 9.86511 173.027 10.1145V9.91222C173.027 8.65137 172.241 7.93088 170.598 7.93088C169.315 7.93088 168.324 8.17751 167.246 8.60703L166.368 5.5893C167.742 5.02676 169.205 4.64435 171.296 4.64435C173.387 4.64435 174.964 5.16255 175.933 6.12966C176.855 7.03027 177.238 8.29112 177.238 10.0009V17.0035H173.008V15.7426C172.174 16.6654 171.027 17.2723 169.429 17.2723C167.11 17.2723 165.332 15.9449 165.332 13.5119ZM173.072 12.5891V12.0266C172.645 11.8465 172.036 11.7107 171.407 11.7107C170.169 11.7107 169.448 12.3175 169.448 13.2182V13.2625C169.448 14.0966 170.077 14.5898 170.955 14.5898C172.193 14.5898 173.072 13.8029 173.072 12.5863V12.5891Z" fill="#FF5758"/>
<path d="M180.185 8.2468H178.767V4.89376H180.185V4.62496C180.185 3.22832 180.501 2.1947 181.221 1.47421C181.941 0.753724 182.952 0.415649 184.393 0.415649C185.697 0.415649 186.509 0.551434 187.182 0.753724V3.77146C186.686 3.61351 186.193 3.52483 185.584 3.52483C184.797 3.52483 184.368 3.88507 184.368 4.67207V4.96581H187.157V8.25234H184.434V17.009H180.182V8.25234L180.185 8.2468Z" fill="#FF5758"/>
<path d="M189.276 8.2468H187.857V4.89376H189.276V4.62496C189.276 3.22832 189.591 2.1947 190.312 1.47421C191.032 0.753724 192.043 0.415649 193.483 0.415649C194.788 0.415649 195.6 0.551434 196.273 0.753724V3.77146C195.777 3.61351 195.284 3.52483 194.675 3.52483C193.888 3.52483 193.458 3.88507 193.458 4.67207V4.96581H196.248V8.25234H193.525V17.009H189.273V8.25234L189.276 8.2468Z" fill="#FF5758"/>
<path d="M197.603 0.568054H202.057V3.7188H197.603V0.568054ZM197.691 4.82447H201.968V17.0035H197.691V4.82447Z" fill="#FF5758"/>
<path d="M204.354 4.82449H208.628V6.53426C209.414 5.52003 210.542 4.55292 212.273 4.55292C214.86 4.55292 216.414 6.26269 216.414 9.0338V17.0035H212.137V10.4083C212.137 9.08091 211.439 8.36042 210.428 8.36042C209.417 8.36042 208.628 9.08091 208.628 10.4083V17.0035H204.354V4.82449Z" fill="#FF5758"/>
<path d="M218.509 19.2536L219.883 16.416C221.188 17.1365 222.492 17.5633 224.135 17.5633C226.273 17.5633 227.331 16.5047 227.331 14.5705V14.0966C226.476 15.0859 225.351 15.92 223.573 15.92C220.581 15.92 218.171 13.7585 218.171 10.2697V10.2254C218.171 6.71438 220.622 4.55292 223.437 4.55292C225.259 4.55292 226.34 5.29557 227.262 6.26269V4.82171H231.536V14.0744C231.536 16.3024 231.041 17.857 229.96 18.9377C228.88 20.0185 227.149 20.6475 224.606 20.6475C222.243 20.6475 220.262 20.1515 218.509 19.2509V19.2536ZM227.331 10.2725V10.2281C227.331 8.87861 226.295 7.88656 224.855 7.88656C223.415 7.88656 222.356 8.90078 222.356 10.2503V10.2947C222.356 11.6442 223.392 12.6362 224.855 12.6362C226.318 12.6362 227.331 11.622 227.331 10.2725Z" fill="#FF5758"/>
<path d="M68.1712 25.8405V27.6362H67.1795V25.8599L65.4482 23.1332H66.6061L67.6809 24.9399L68.7751 23.1332H69.8997L68.1684 25.8405H68.1712Z" fill="white"/>
<path d="M74.922 26.2867C74.8029 26.5666 74.6367 26.8132 74.4234 27.0266C74.2101 27.2399 73.9581 27.4062 73.6644 27.5281C73.3708 27.6501 73.0495 27.711 72.7032 27.711C72.357 27.711 72.0356 27.6501 71.7448 27.5281C71.4539 27.4062 71.2018 27.2399 70.9886 27.0321C70.7753 26.8243 70.6118 26.5804 70.4927 26.2978C70.3736 26.0151 70.3154 25.7158 70.3154 25.3944V25.3805C70.3154 25.0591 70.3764 24.757 70.4955 24.4771C70.6146 24.1973 70.7808 23.9506 70.9941 23.7373C71.2074 23.5239 71.4595 23.3576 71.7531 23.2357C72.0467 23.1138 72.368 23.0528 72.7143 23.0528C73.0606 23.0528 73.3819 23.1138 73.6727 23.2357C73.9636 23.3576 74.2157 23.5239 74.429 23.7317C74.6423 23.9395 74.8057 24.1834 74.9248 24.4661C75.0412 24.7459 75.1021 25.048 75.1021 25.3694V25.3833C75.1021 25.7047 75.0412 26.0068 74.922 26.2867ZM74.0689 25.3833C74.0689 25.1893 74.0356 25.0092 73.9691 24.8374C73.9027 24.6656 73.8085 24.5159 73.6866 24.3885C73.5647 24.261 73.4207 24.1585 73.2517 24.0836C73.0855 24.0088 72.9027 23.97 72.706 23.97C72.5093 23.97 72.321 24.0061 72.1575 24.0809C71.9913 24.1529 71.85 24.2555 71.7337 24.3829C71.6146 24.5104 71.5232 24.66 71.4567 24.8291C71.3902 24.9981 71.357 25.181 71.357 25.3722V25.3861C71.357 25.58 71.3902 25.7602 71.4567 25.932C71.5232 26.1038 71.6174 26.2534 71.7392 26.3809C71.8611 26.5084 72.0052 26.6109 72.1714 26.6857C72.3376 26.7605 72.5204 26.7993 72.7226 26.7993C72.9248 26.7993 73.1021 26.7633 73.2683 26.6913C73.4345 26.6192 73.5786 26.5167 73.6949 26.3892C73.814 26.2617 73.9054 26.1121 73.9719 25.9431C74.0384 25.774 74.0716 25.5939 74.0716 25.3999V25.3861L74.0689 25.3833Z" fill="white"/>
<path d="M79.697 26.5666C79.6056 26.8187 79.4726 27.0321 79.3009 27.2012C79.1291 27.3702 78.9214 27.4977 78.6776 27.5808C78.4338 27.6639 78.1596 27.7055 77.8604 27.7055C77.2566 27.7055 76.7801 27.5392 76.4339 27.2039C76.0876 26.8686 75.9131 26.3698 75.9131 25.7048V23.1304H76.9048V25.677C76.9048 26.0456 76.9906 26.3227 77.1624 26.5111C77.3341 26.6968 77.5724 26.791 77.8771 26.791C78.1818 26.791 78.42 26.6996 78.5917 26.5195C78.7635 26.3393 78.8494 26.0705 78.8494 25.7075V23.1276H79.841V25.6687C79.841 26.0123 79.794 26.3089 79.7025 26.5638L79.697 26.5666Z" fill="white"/>
<path d="M83.5788 27.6334L82.6148 26.1924H81.8364V27.6334H80.8447V23.1304H82.9029C83.4375 23.1304 83.8558 23.2606 84.1549 23.5239C84.4541 23.7871 84.6009 24.1501 84.6009 24.6185V24.6323C84.6009 24.9981 84.5123 25.2946 84.335 25.5246C84.1577 25.7546 83.925 25.9236 83.6369 26.0289L84.7367 27.6362H83.5788V27.6334ZM83.6009 24.6683C83.6009 24.455 83.5317 24.2942 83.396 24.1862C83.2574 24.0781 83.0691 24.0254 82.8225 24.0254H81.8392V25.3195H82.8419C83.0857 25.3195 83.2741 25.2614 83.4043 25.145C83.5345 25.0286 83.6009 24.8762 83.6009 24.6822V24.6683Z" fill="white"/>
<path d="M90.5589 26.8963C90.4786 27.0709 90.365 27.215 90.221 27.3341C90.0769 27.4533 89.9024 27.542 89.703 27.6057C89.5007 27.6667 89.2791 27.6999 89.0354 27.6999C88.6919 27.6999 88.3567 27.6417 88.0243 27.5226C87.6947 27.4034 87.3927 27.2233 87.124 26.9794L87.7085 26.2784C87.9135 26.4446 88.124 26.5776 88.3429 26.6774C88.5589 26.7771 88.7971 26.8243 89.0548 26.8243C89.2597 26.8243 89.4204 26.7882 89.534 26.7106C89.6476 26.6358 89.7057 26.5305 89.7057 26.3975V26.3837C89.7057 26.3199 89.6946 26.2617 89.6697 26.2118C89.6448 26.162 89.6005 26.1176 89.534 26.0733C89.4675 26.0289 89.3761 25.9874 89.257 25.9458C89.1379 25.9043 88.9855 25.8571 88.7944 25.81C88.5672 25.7546 88.3595 25.6909 88.1739 25.6244C87.9883 25.5551 87.8332 25.472 87.703 25.3694C87.5728 25.2697 87.4731 25.1422 87.4038 24.9926C87.3318 24.8429 87.2985 24.6573 87.2985 24.4328V24.4189C87.2985 24.2139 87.3373 24.0282 87.4149 23.8619C87.4924 23.6957 87.5977 23.5544 87.7362 23.4352C87.8747 23.316 88.0409 23.2218 88.232 23.1581C88.4232 23.0943 88.6365 23.0611 88.8664 23.0611C89.196 23.0611 89.5007 23.111 89.7777 23.208C90.0548 23.3077 90.3096 23.4491 90.5395 23.6319L90.0243 24.3774C89.8221 24.2388 89.6254 24.1307 89.4315 24.0532C89.2376 23.9728 89.0465 23.934 88.8525 23.934C88.6586 23.934 88.5146 23.9728 88.4176 24.0476C88.3207 24.1224 88.2736 24.2166 88.2736 24.3275V24.3413C88.2736 24.4134 88.2875 24.4771 88.3152 24.5298C88.3429 24.5824 88.3927 24.6323 88.4675 24.6739C88.5395 24.7182 88.6393 24.757 88.7667 24.7958C88.8941 24.8346 89.0548 24.8789 89.2459 24.9316C89.473 24.9926 89.678 25.0591 89.8553 25.1339C90.0326 25.2087 90.1849 25.3001 90.3068 25.4055C90.4287 25.5108 90.5229 25.6327 90.5838 25.774C90.6475 25.9153 90.678 26.0844 90.678 26.2811V26.295C90.678 26.5167 90.6365 26.7162 90.5561 26.8908L90.5589 26.8963Z" fill="white"/>
<path d="M95.2566 26.5666C95.1652 26.8187 95.0322 27.0321 94.8604 27.2012C94.6887 27.3702 94.4809 27.4977 94.2372 27.5808C93.9934 27.6639 93.7192 27.7055 93.42 27.7055C92.8161 27.7055 92.3397 27.5392 91.9934 27.2039C91.6472 26.8686 91.4727 26.3698 91.4727 25.7048V23.1304H92.4643V25.677C92.4643 26.0456 92.5502 26.3227 92.722 26.5111C92.8937 26.6968 93.1319 26.791 93.4366 26.791C93.7413 26.791 93.9796 26.6996 94.1513 26.5195C94.3231 26.3393 94.4089 26.0705 94.4089 25.7075V23.1276H95.4006V25.6687C95.4006 26.0123 95.3535 26.3089 95.2621 26.5638L95.2566 26.5666Z" fill="white"/>
<path d="M99.9991 27.2427C99.8744 27.3424 99.7387 27.4256 99.5919 27.4976C99.4451 27.5669 99.2816 27.6223 99.1071 27.6583C98.9326 27.6944 98.7332 27.7138 98.5143 27.7138C98.1847 27.7138 97.8772 27.6528 97.5947 27.5337C97.3121 27.4145 97.0684 27.2482 96.8606 27.0404C96.6529 26.8326 96.495 26.5859 96.3786 26.3033C96.2623 26.0206 96.2041 25.7186 96.2041 25.3971V25.3833C96.2041 25.0618 96.2623 24.7598 96.3786 24.4799C96.495 24.2 96.6556 23.9534 96.8606 23.74C97.0656 23.5266 97.3121 23.3604 97.6002 23.2384C97.8883 23.1165 98.2041 23.0555 98.5531 23.0555C98.7636 23.0555 98.9548 23.0722 99.1293 23.1082C99.3038 23.1442 99.4617 23.1886 99.603 23.2495C99.7442 23.3105 99.8744 23.3825 99.9963 23.4684C100.118 23.5543 100.229 23.6486 100.332 23.7511L99.6999 24.4771C99.5254 24.3192 99.3454 24.1945 99.1625 24.103C98.9797 24.0116 98.7747 23.9672 98.5476 23.9672C98.3592 23.9672 98.1847 24.0033 98.024 24.0781C97.8634 24.1501 97.7249 24.2527 97.6085 24.3801C97.4922 24.5076 97.4035 24.6572 97.3371 24.8263C97.2734 24.9953 97.2401 25.1782 97.2401 25.3694V25.3833C97.2401 25.5772 97.2734 25.7574 97.3371 25.9292C97.4008 26.101 97.4894 26.2506 97.603 26.3781C97.7166 26.5056 97.8551 26.6081 98.0157 26.6829C98.1764 26.7577 98.3537 26.7965 98.5476 26.7965C98.8052 26.7965 99.0213 26.7494 99.2013 26.6552C99.3786 26.561 99.5559 26.4335 99.7332 26.27L100.365 26.9074C100.248 27.0321 100.129 27.1429 100.005 27.2427H99.9991Z" fill="white"/>
<path d="M104.744 27.2427C104.62 27.3424 104.484 27.4256 104.337 27.4976C104.19 27.5669 104.027 27.6223 103.852 27.6583C103.678 27.6944 103.478 27.7138 103.259 27.7138C102.93 27.7138 102.622 27.6528 102.34 27.5337C102.057 27.4145 101.813 27.2482 101.606 27.0404C101.398 26.8326 101.24 26.5859 101.124 26.3033C101.007 26.0206 100.949 25.7186 100.949 25.3971V25.3833C100.949 25.0618 101.007 24.7598 101.124 24.4799C101.24 24.2 101.401 23.9534 101.606 23.74C101.811 23.5266 102.057 23.3604 102.345 23.2384C102.633 23.1165 102.949 23.0555 103.298 23.0555C103.509 23.0555 103.7 23.0722 103.874 23.1082C104.049 23.1442 104.207 23.1886 104.348 23.2495C104.489 23.3105 104.62 23.3825 104.741 23.4684C104.863 23.5543 104.974 23.6486 105.077 23.7511L104.445 24.4771C104.271 24.3192 104.09 24.1945 103.908 24.103C103.725 24.0116 103.52 23.9672 103.293 23.9672C103.104 23.9672 102.93 24.0033 102.769 24.0781C102.608 24.1501 102.47 24.2527 102.354 24.3801C102.237 24.5076 102.149 24.6572 102.082 24.8263C102.018 24.9953 101.985 25.1782 101.985 25.3694V25.3833C101.985 25.5772 102.018 25.7574 102.082 25.9292C102.146 26.101 102.235 26.2506 102.348 26.3781C102.462 26.5056 102.6 26.6081 102.761 26.6829C102.922 26.7577 103.099 26.7965 103.293 26.7965C103.55 26.7965 103.766 26.7494 103.946 26.6552C104.124 26.561 104.301 26.4335 104.478 26.27L105.11 26.9074C104.994 27.0321 104.874 27.1429 104.75 27.2427H104.744Z" fill="white"/>
<path d="M105.896 27.6334V23.1304H109.287V24.0116H106.874V24.926H108.996V25.8073H106.874V26.7522H109.318V27.6334H105.896Z" fill="white"/>
<path d="M113.337 26.8963C113.257 27.0709 113.143 27.215 112.999 27.3341C112.855 27.4533 112.681 27.542 112.481 27.6057C112.279 27.6667 112.057 27.6999 111.814 27.6999C111.47 27.6999 111.135 27.6417 110.803 27.5226C110.473 27.4034 110.171 27.2233 109.902 26.9794L110.487 26.2784C110.692 26.4446 110.902 26.5776 111.121 26.6774C111.337 26.7771 111.575 26.8243 111.833 26.8243C112.038 26.8243 112.199 26.7882 112.312 26.7106C112.426 26.6358 112.484 26.5305 112.484 26.3975V26.3837C112.484 26.3199 112.473 26.2617 112.448 26.2118C112.423 26.162 112.379 26.1176 112.312 26.0733C112.246 26.0289 112.154 25.9874 112.035 25.9458C111.916 25.9043 111.764 25.8571 111.573 25.81C111.346 25.7546 111.138 25.6909 110.952 25.6244C110.767 25.5551 110.611 25.472 110.481 25.3694C110.351 25.2697 110.251 25.1422 110.182 24.9926C110.11 24.8429 110.077 24.6573 110.077 24.4328V24.4189C110.077 24.2139 110.116 24.0282 110.193 23.8619C110.271 23.6957 110.376 23.5544 110.515 23.4352C110.653 23.316 110.819 23.2218 111.01 23.1581C111.202 23.0943 111.415 23.0611 111.645 23.0611C111.974 23.0611 112.279 23.111 112.556 23.208C112.833 23.3077 113.088 23.4491 113.318 23.6319L112.803 24.3774C112.6 24.2388 112.404 24.1307 112.21 24.0532C112.016 23.9728 111.825 23.934 111.631 23.934C111.437 23.934 111.293 23.9728 111.196 24.0476C111.099 24.1224 111.052 24.2166 111.052 24.3275V24.3413C111.052 24.4134 111.066 24.4771 111.093 24.5298C111.121 24.5824 111.171 24.6323 111.246 24.6739C111.318 24.7182 111.418 24.757 111.545 24.7958C111.672 24.8346 111.833 24.8789 112.024 24.9316C112.251 24.9926 112.456 25.0591 112.634 25.1339C112.811 25.2087 112.963 25.3001 113.085 25.4055C113.207 25.5108 113.301 25.6327 113.362 25.774C113.426 25.9153 113.456 26.0844 113.456 26.2811V26.295C113.456 26.5167 113.415 26.7162 113.334 26.8908L113.337 26.8963Z" fill="white"/>
<path d="M117.453 26.8963C117.373 27.0709 117.26 27.215 117.115 27.3341C116.971 27.4533 116.797 27.542 116.597 27.6057C116.395 27.6667 116.174 27.6999 115.93 27.6999C115.586 27.6999 115.251 27.6417 114.919 27.5226C114.589 27.4034 114.287 27.2233 114.019 26.9794L114.603 26.2784C114.808 26.4446 115.019 26.5776 115.237 26.6774C115.453 26.7771 115.692 26.8243 115.949 26.8243C116.154 26.8243 116.315 26.7882 116.429 26.7106C116.542 26.6358 116.6 26.5305 116.6 26.3975V26.3837C116.6 26.3199 116.589 26.2617 116.564 26.2118C116.539 26.162 116.495 26.1176 116.429 26.0733C116.362 26.0289 116.271 25.9874 116.152 25.9458C116.032 25.9043 115.88 25.8571 115.689 25.81C115.462 25.7546 115.254 25.6909 115.068 25.6244C114.883 25.5551 114.728 25.472 114.598 25.3694C114.467 25.2697 114.368 25.1422 114.298 24.9926C114.226 24.8429 114.193 24.6573 114.193 24.4328V24.4189C114.193 24.2139 114.232 24.0282 114.309 23.8619C114.387 23.6957 114.492 23.5544 114.631 23.4352C114.769 23.316 114.935 23.2218 115.127 23.1581C115.318 23.0943 115.531 23.0611 115.761 23.0611C116.091 23.0611 116.395 23.111 116.672 23.208C116.949 23.3077 117.204 23.4491 117.434 23.6319L116.919 24.3774C116.717 24.2388 116.52 24.1307 116.326 24.0532C116.132 23.9728 115.941 23.934 115.747 23.934C115.553 23.934 115.409 23.9728 115.312 24.0476C115.215 24.1224 115.168 24.2166 115.168 24.3275V24.3413C115.168 24.4134 115.182 24.4771 115.21 24.5298C115.237 24.5824 115.287 24.6323 115.362 24.6739C115.434 24.7182 115.534 24.757 115.661 24.7958C115.789 24.8346 115.949 24.8789 116.14 24.9316C116.368 24.9926 116.573 25.0591 116.75 25.1339C116.927 25.2087 117.079 25.3001 117.201 25.4055C117.323 25.5108 117.417 25.6327 117.478 25.774C117.542 25.9153 117.573 26.0844 117.573 26.2811V26.295C117.573 26.5167 117.531 26.7162 117.451 26.8908L117.453 26.8963Z" fill="white"/>
<path d="M118.688 27.6334H118.295V26.6053H119.331V27.4727C119.331 27.8967 119.229 28.2015 119.024 28.3899C118.819 28.5756 118.525 28.6726 118.143 28.6754L118.06 28.2708C118.514 28.2237 118.724 28.0103 118.691 27.6334H118.688Z" fill="white"/>
<path d="M126.611 26.2867C126.492 26.5666 126.326 26.8132 126.113 27.0266C125.9 27.2399 125.648 27.4062 125.354 27.5281C125.06 27.6501 124.739 27.711 124.393 27.711C124.046 27.711 123.725 27.6501 123.434 27.5281C123.143 27.4062 122.891 27.2399 122.678 27.0321C122.465 26.8243 122.301 26.5804 122.182 26.2978C122.063 26.0151 122.005 25.7158 122.005 25.3944V25.3805C122.005 25.0591 122.066 24.757 122.185 24.4771C122.304 24.1973 122.47 23.9506 122.684 23.7373C122.897 23.5239 123.149 23.3576 123.443 23.2357C123.736 23.1138 124.058 23.0528 124.404 23.0528C124.75 23.0528 125.071 23.1138 125.362 23.2357C125.653 23.3576 125.905 23.5239 126.118 23.7317C126.332 23.9395 126.495 24.1834 126.614 24.4661C126.731 24.7459 126.792 25.048 126.792 25.3694V25.3833C126.792 25.7047 126.731 26.0068 126.611 26.2867ZM125.758 25.3833C125.758 25.1893 125.725 25.0092 125.659 24.8374C125.592 24.6656 125.498 24.5159 125.376 24.3885C125.254 24.261 125.11 24.1585 124.941 24.0836C124.775 24.0088 124.592 23.97 124.395 23.97C124.199 23.97 124.01 24.0061 123.847 24.0809C123.681 24.1529 123.539 24.2555 123.423 24.3829C123.304 24.5104 123.213 24.66 123.146 24.8291C123.08 24.9981 123.046 25.181 123.046 25.3722V25.3861C123.046 25.58 123.08 25.7602 123.146 25.932C123.213 26.1038 123.307 26.2534 123.429 26.3809C123.551 26.5084 123.695 26.6109 123.861 26.6857C124.027 26.7605 124.21 26.7993 124.412 26.7993C124.614 26.7993 124.792 26.7633 124.958 26.6913C125.124 26.6192 125.268 26.5167 125.384 26.3892C125.503 26.2617 125.595 26.1121 125.661 25.9431C125.728 25.774 125.761 25.5939 125.761 25.3999V25.3861L125.758 25.3833Z" fill="white"/>
<path d="M131.386 26.5666C131.295 26.8187 131.162 27.0321 130.99 27.2012C130.819 27.3702 130.611 27.4977 130.367 27.5808C130.123 27.6639 129.849 27.7055 129.55 27.7055C128.946 27.7055 128.47 27.5392 128.123 27.2039C127.777 26.8686 127.603 26.3698 127.603 25.7048V23.1304H128.594V25.677C128.594 26.0456 128.68 26.3227 128.852 26.5111C129.024 26.6968 129.262 26.791 129.567 26.791C129.871 26.791 130.109 26.6996 130.281 26.5195C130.453 26.3393 130.539 26.0705 130.539 25.7075V23.1276H131.53V25.6687C131.53 26.0123 131.483 26.3089 131.392 26.5638L131.386 26.5666Z" fill="white"/>
<path d="M135.267 27.6334L134.303 26.1924H133.525V27.6334H132.533V23.1304H134.591C135.126 23.1304 135.544 23.2606 135.843 23.5239C136.143 23.7871 136.289 24.1501 136.289 24.6185V24.6323C136.289 24.9981 136.201 25.2946 136.023 25.5246C135.846 25.7546 135.614 25.9236 135.325 26.0289L136.425 27.6362H135.267V27.6334ZM135.287 24.6683C135.287 24.455 135.217 24.2942 135.082 24.1862C134.943 24.0781 134.755 24.0254 134.508 24.0254H133.525V25.3195H134.528C134.771 25.3195 134.96 25.2614 135.09 25.145C135.22 25.0286 135.287 24.8762 135.287 24.6822V24.6683Z" fill="white"/>
<path d="M142.711 27.2427C142.586 27.3424 142.451 27.4256 142.304 27.4976C142.157 27.5669 141.994 27.6223 141.819 27.6583C141.645 27.6944 141.445 27.7138 141.226 27.7138C140.897 27.7138 140.589 27.6528 140.307 27.5337C140.024 27.4145 139.78 27.2482 139.573 27.0404C139.365 26.8326 139.207 26.5859 139.091 26.3033C138.974 26.0206 138.916 25.7186 138.916 25.3971V25.3833C138.916 25.0618 138.974 24.7598 139.091 24.4799C139.207 24.2 139.368 23.9534 139.573 23.74C139.778 23.5266 140.024 23.3604 140.312 23.2384C140.6 23.1165 140.916 23.0555 141.265 23.0555C141.476 23.0555 141.667 23.0722 141.841 23.1082C142.016 23.1442 142.174 23.1886 142.315 23.2495C142.456 23.3105 142.586 23.3825 142.708 23.4684C142.83 23.5543 142.941 23.6486 143.043 23.7511L142.412 24.4771C142.237 24.3192 142.057 24.1945 141.874 24.103C141.692 24.0116 141.487 23.9672 141.259 23.9672C141.071 23.9672 140.897 24.0033 140.736 24.0781C140.575 24.1501 140.437 24.2527 140.32 24.3801C140.204 24.5076 140.115 24.6572 140.049 24.8263C139.985 24.9953 139.952 25.1782 139.952 25.3694V25.3833C139.952 25.5772 139.985 25.7574 140.049 25.9292C140.113 26.101 140.201 26.2506 140.315 26.3781C140.428 26.5056 140.567 26.6081 140.728 26.6829C140.888 26.7577 141.066 26.7965 141.259 26.7965C141.517 26.7965 141.733 26.7494 141.913 26.6552C142.091 26.561 142.268 26.4335 142.445 26.27L143.077 26.9074C142.96 27.0321 142.841 27.1429 142.717 27.2427H142.711Z" fill="white"/>
<path d="M148.268 26.2867C148.149 26.5666 147.982 26.8132 147.769 27.0266C147.556 27.2399 147.304 27.4062 147.01 27.5281C146.717 27.6501 146.395 27.711 146.049 27.711C145.703 27.711 145.381 27.6501 145.09 27.5281C144.8 27.4062 144.548 27.2399 144.334 27.0321C144.121 26.8243 143.958 26.5804 143.838 26.2978C143.719 26.0151 143.661 25.7158 143.661 25.3944V25.3805C143.661 25.0591 143.722 24.757 143.841 24.4771C143.96 24.1973 144.127 23.9506 144.34 23.7373C144.553 23.5239 144.805 23.3576 145.099 23.2357C145.392 23.1138 145.714 23.0528 146.06 23.0528C146.406 23.0528 146.728 23.1138 147.018 23.2357C147.309 23.3576 147.561 23.5239 147.775 23.7317C147.988 23.9395 148.151 24.1834 148.271 24.4661C148.387 24.7459 148.448 25.048 148.448 25.3694V25.3833C148.448 25.7047 148.387 26.0068 148.268 26.2867ZM147.412 25.3833C147.412 25.1893 147.379 25.0092 147.312 24.8374C147.246 24.6656 147.151 24.5159 147.03 24.3885C146.908 24.261 146.764 24.1585 146.595 24.0836C146.428 24.0088 146.246 23.97 146.049 23.97C145.852 23.97 145.664 24.0061 145.5 24.0809C145.334 24.1529 145.193 24.2555 145.077 24.3829C144.958 24.5104 144.866 24.66 144.8 24.8291C144.733 24.9981 144.7 25.181 144.7 25.3722V25.3861C144.7 25.58 144.733 25.7602 144.8 25.932C144.866 26.1038 144.96 26.2534 145.082 26.3809C145.204 26.5084 145.348 26.6109 145.514 26.6857C145.681 26.7605 145.863 26.7993 146.066 26.7993C146.268 26.7993 146.445 26.7633 146.611 26.6913C146.777 26.6192 146.921 26.5167 147.038 26.3892C147.157 26.2617 147.248 26.1121 147.315 25.9431C147.381 25.774 147.415 25.5939 147.415 25.3999V25.3861L147.412 25.3833Z" fill="white"/>
<path d="M152.852 27.6334V24.6933L151.586 26.6164H151.561L150.306 24.7127V27.6334H149.328V23.1304H150.395L151.577 25.0341L152.76 23.1304H153.827V27.6334H152.849H152.852Z" fill="white"/>
<path d="M158.434 27.6334V24.6933L157.168 26.6164H157.143L155.888 24.7127V27.6334H154.91V23.1304H155.977L157.159 25.0341L158.342 23.1304H159.409V27.6334H158.431H158.434Z" fill="white"/>
<path d="M160.539 27.6334V23.1304H161.531V27.6334H160.539Z" fill="white"/>
<path d="M164.691 24.0448V27.6362H163.699V24.0448H162.328V23.1304H166.059V24.0448H164.688H164.691Z" fill="white"/>
<path d="M170.345 27.6334V24.6933L169.079 26.6164H169.054L167.799 24.7127V27.6334H166.821V23.1304H167.888L169.071 25.0341L170.253 23.1304H171.32V27.6334H170.342H170.345Z" fill="white"/>
<path d="M172.403 27.6334V23.1304H175.794V24.0116H173.381V24.926H175.503V25.8073H173.381V26.7522H175.824V27.6334H172.403Z" fill="white"/>
<path d="M179.871 27.6334L177.691 24.7709V27.6334H176.713V23.1304H177.627L179.738 25.9042V23.1304H180.716V27.6334H179.874H179.871Z" fill="white"/>
<path d="M183.833 24.0448V27.6362H182.841V24.0448H181.47V23.1304H185.201V24.0448H183.83H183.833Z" fill="white"/>
</g>
<defs>
<clipPath id="clip0_296_39">
<rect width="231.538" height="30" fill="white"/>
</clipPath>
</defs>
</svg>
