<svg width="216" height="109" viewBox="0 0 216 109" fill="none" xmlns="http://www.w3.org/2000/svg">
<path d="M107.66 69.9442C106.77 70.9847 105.95 71.9451 105.209 72.9156L80.367 104.661L80.0669 104.961C77.0966 108.743 77.9167 108.303 73.2462 108.303H51.0039C49.8138 108.303 48.7837 108.232 47.1436 108.232C47.3636 107.492 47.6636 106.752 48.0336 106.081C49.7438 103.86 51.514 101.629 53.2242 99.4783C65.6054 83.6807 77.7667 67.8832 90.1479 52.0856C102.899 35.8378 115.511 19.52 128.262 3.35228C129.082 2.31178 129.672 0.901108 131.232 0.380859C133.382 2.23175 144.584 16.6286 146.354 19.44C146.054 20.7006 145.314 21.7411 144.353 22.5515C138.053 30.5653 131.902 38.4991 125.592 46.5129C124.781 47.5534 124.181 48.664 123.371 49.6244C124.191 50.6649 124.781 51.7755 125.522 52.6659C138.793 69.654 151.994 86.6422 165.336 103.62C166.376 104.731 167.186 106.071 167.786 107.482C166.966 108.373 165.936 108.222 165.046 108.222H139.983C138.573 108.373 137.163 107.702 136.203 106.592C134.793 104.591 133.162 102.74 131.752 100.729C124.481 91.3044 117.141 81.9599 109.73 72.6154C109.06 71.725 108.4 70.8346 107.65 69.9442H107.66Z" fill="url(#paint0_linear_911_557)"/>
<path d="M84.3086 0C89.5692 6.38306 94.5397 12.9062 99.5102 19.3593C98.6201 20.5498 98.1 21.5803 97.2899 22.4708C81.2783 43.0906 65.0366 63.7105 49.025 84.1803L32.4133 105.32C31.9733 105.841 31.5232 106.431 31.1532 107.031C30.5631 107.852 29.593 108.292 28.6329 108.222H2.74028C1.78018 108.372 0.740076 108.152 0 107.481C0.370038 106.221 1.04011 105.03 2.0002 104.14C7.49077 97.1665 12.8213 90.2732 18.3119 83.3699L81.1883 2.97142C81.9284 1.71082 83.0385 0.670321 84.2986 0H84.3086Z" fill="url(#paint1_linear_911_557)"/>
<path d="M139.324 49.5444C144.215 43.1613 149.035 37.1585 153.856 31.1456C154.156 30.8454 154.526 30.6253 154.896 30.3252C156.306 30.8454 156.896 32.036 157.636 32.9965C164.977 42.3409 172.248 51.5354 179.439 60.8898C190.56 75.2067 201.761 89.4435 212.952 103.84C213.992 104.801 214.732 105.991 215.102 107.252C214.582 108.293 213.692 108.072 212.882 108.072H199.681C195.82 108.072 191.89 108.002 188.039 108.072C186.109 108.142 184.329 107.252 183.289 105.621C179.059 100.059 174.538 94.4159 170.088 88.8532C160.747 76.8375 151.556 65.1219 142.205 53.2462C141.245 52.2857 140.425 51.0951 139.314 49.5344L139.324 49.5444Z" fill="url(#paint2_linear_911_557)"/>
<defs>
<linearGradient id="paint0_linear_911_557" x1="107.465" y1="0.380859" x2="107.465" y2="108.318" gradientUnits="userSpaceOnUse">
<stop stop-color="#D54647"/>
<stop offset="1" stop-color="#FF5758"/>
</linearGradient>
<linearGradient id="paint1_linear_911_557" x1="49.7551" y1="0" x2="49.7551" y2="108.267" gradientUnits="userSpaceOnUse">
<stop stop-color="#D54647"/>
<stop offset="1" stop-color="#FF5758"/>
</linearGradient>
<linearGradient id="paint2_linear_911_557" x1="177.208" y1="30.3252" x2="177.208" y2="108.092" gradientUnits="userSpaceOnUse">
<stop stop-color="#D54647"/>
<stop offset="1" stop-color="#FF5758"/>
</linearGradient>
</defs>
</svg>
