<svg width="784" height="395" viewBox="0 0 784 395" fill="none" xmlns="http://www.w3.org/2000/svg">
<path d="M392.055 254.705C388.814 258.494 385.828 261.991 383.133 265.525L292.667 381.128L291.574 382.221C280.758 395.992 283.744 394.389 266.736 394.389H185.74C181.406 394.389 177.654 394.134 171.682 394.134C172.483 391.438 173.575 388.742 174.923 386.301C181.151 378.213 187.597 370.088 193.825 362.255C238.912 304.727 283.198 247.199 328.285 189.672C374.72 130.504 420.645 71.0817 467.079 12.2058C470.066 8.41675 472.215 3.27968 477.896 1.38516C485.726 8.12529 526.516 60.5526 532.962 70.7903C531.869 75.3808 529.174 79.1699 525.678 82.121C502.734 111.304 480.336 140.195 457.355 169.378C454.405 173.167 452.22 177.211 449.27 180.709C452.257 184.498 454.405 188.542 457.1 191.785C505.429 253.648 553.503 315.512 602.086 377.339C605.874 381.383 608.824 386.265 611.009 391.402C608.022 394.644 604.271 394.098 601.03 394.098H509.763C504.628 394.644 499.493 392.203 495.996 388.159C490.861 380.873 484.925 374.132 479.79 366.809C453.313 332.489 426.581 298.461 399.594 264.432C397.154 261.19 394.75 257.947 392.019 254.705H392.055Z" fill="white" fill-opacity="0.3"/>
<path d="M307.016 0C326.172 23.2443 344.273 46.9987 362.373 70.4981C359.132 74.8336 357.238 78.5863 354.288 81.8288C295.98 156.917 236.835 232.006 178.528 306.548L118.035 383.532C116.433 385.426 114.794 387.576 113.446 389.762C111.298 392.749 107.765 394.352 104.269 394.097H9.97892C6.48265 394.644 2.69504 393.842 0 391.401C1.34752 386.811 3.78762 382.475 7.28388 379.232C27.2781 353.839 46.6897 328.736 66.6839 303.597L295.653 10.8206C298.348 6.23006 302.39 2.44102 306.979 0L307.016 0Z" fill="white" fill-opacity="0.3"/>
<path d="M507.358 180.416C525.167 157.172 542.721 135.312 560.275 113.415C561.368 112.322 562.715 111.521 564.063 110.428C569.198 112.322 571.347 116.658 574.042 120.156C600.773 154.184 627.25 187.666 653.436 221.731C693.934 273.867 734.724 325.711 775.477 378.138C779.265 381.636 781.96 385.972 783.307 390.562C781.414 394.351 778.172 393.55 775.222 393.55H727.149C713.091 393.55 698.778 393.295 684.757 393.55C677.728 393.805 671.245 390.562 667.457 384.624C652.052 364.367 635.59 343.818 619.384 323.562C585.368 279.805 551.899 237.142 517.846 193.896C514.35 190.399 511.364 186.063 507.321 180.379L507.358 180.416Z" fill="white" fill-opacity="0.3"/>
</svg>
